{"title":"Fatal Crossing 2018 Movies 720p HDRip x264 5.1 with Sample ☻rDX☻","magnet":"magnet:?xt=urn:btih:d40411be27547849d2e66d6ee88306e0fb323094&dn=Fatal+Crossing+2018+Movies+720p+HDRip+x264+5.1+with+Sample+%E2%98%BBrDX%E2%98%BB&tr=udp%3A%2F%2Ftracker.leechers-paradise.org%3A6969&tr=udp%3A%2F%2Fzer0day.ch%3A1337&tr=udp%3A%2F%2Fopen.demonii.com%3A1337&tr=udp%3A%2F%2Ftracker.coppersurfer.tk%3A6969&tr=udp%3A%2F%2Fexodus.desync.com%3A6969","uploader":"basicssom","categoryP":"video","categoryS":"hd___movies","size":"914498512","seeders":"0","leechers":"36","description":"----------------------------------------------------------------\r\nFatal Crossing 2018 Movies 720p HDRip x264 5.1 with Sample &#x263B;rDX&#x263B;\r\n\r\nSCREEN SHOTS &amp; POSTER:\r\n   <a href=\"\nhttp://iphonehosting.eu/2018/5/a/hospital/index.html\" rel=\"nofollow\" target=\"_NEW\">\nhttp://iphonehosting.eu/2018/5/a/hospital/index.html</a> <a href=\"\nhttp://iphonehosting.eu/2018/5/a/hospital/1.html\" rel=\"nofollow\" target=\"_NEW\">\nhttp://iphonehosting.eu/2018/5/a/hospital/1.html</a> <a href=\"\nhttp://iphonehosting.eu/2018/5/a/hospital/2.html\" rel=\"nofollow\" target=\"_NEW\">\nhttp://iphonehosting.eu/2018/5/a/hospital/2.html</a>   <a href=\"\nhttp://iphonehosting.eu/2018/5/a/hospital/3.html\" rel=\"nofollow\" target=\"_NEW\">\nhttp://iphonehosting.eu/2018/5/a/hospital/3.html</a>   <a href=\"\nhttp://iphonehosting.eu/2018/5/a/hospital/4.html\" rel=\"nofollow\" target=\"_NEW\">\nhttp://iphonehosting.eu/2018/5/a/hospital/4.html</a>   <a href=\"\nhttp://iphonehosting.eu/2018/5/a/hospital/5.html\" rel=\"nofollow\" target=\"_NEW\">\nhttp://iphonehosting.eu/2018/5/a/hospital/5.html</a>   <a href=\"\nhttp://iphonehosting.eu/2018/5/a/hospital/6.html\" rel=\"nofollow\" target=\"_NEW\">\nhttp://iphonehosting.eu/2018/5/a/hospital/6.html</a>   <a href=\"\nhttp://iphonehosting.eu/2018/5/a/hospital/7.html\" rel=\"nofollow\" target=\"_NEW\">\nhttp://iphonehosting.eu/2018/5/a/hospital/7.html</a>   <a href=\"\nhttp://iphonehosting.eu/2018/5/a/hospital/8.html\" rel=\"nofollow\" target=\"_NEW\">\nhttp://iphonehosting.eu/2018/5/a/hospital/8.html</a>   <a href=\"\nhttp://iphonehosting.eu/2018/5/a/hospital/9.html\" rel=\"nofollow\" target=\"_NEW\">\nhttp://iphonehosting.eu/2018/5/a/hospital/9.html</a>   <a href=\"\nhttp://iphonehosting.eu/2018/5/a/hospital/10.html\" rel=\"nofollow\" target=\"_NEW\">\nhttp://iphonehosting.eu/2018/5/a/hospital/10.html</a>\r\n\r\nFile size                                : 864 MiB\r\nDuration                                 : 1 h 33 min\r\nOverall bit rate                         : 1 294 kb/s\r\nMovie name                               : Fatal Crossing 2018 Movies 720p HDRip x264 5.1 &#x263B;rDX&#x263B;\r\n\r\nVideo\r\nID                                       : 2\r\nFormat                                   : AVC\r\nFormat/Info                              : Advanced Video Codec\r\nFormat profile                           : High@L4\r\nFormat settings, CABAC                   : Yes\r\nFormat settings, ReFrames                : 4 frames\r\nCodec ID                                 : V_MPEG4/ISO/AVC\r\nDuration                                 : 1 h 33 min\r\nBit rate                                 : 909 kb/s\r\nWidth                                    : 1 280 pixels\r\nHeight                                   : 532 pixels\r\nDisplay aspect ratio                     : 2.40:1\r\nFrame rate mode                          : Constant\r\nFrame rate                               : 23.976 (24000/1001) FPS\r\nColor space                              : YUV\r\nChroma subsampling                       : 4:2:0\r\nBit depth                                : 8 bits\r\nScan type                                : Progressive\r\nBits/(Pixel*Frame)                       : 0.056\r\nStream size                              : 590 MiB (68%)\r\nTitle                                    : &#x263B;rDX&#x263B;\r\nWriting library                          : x264\r\n\r\nAudio\r\nID                                       : 1\r\nFormat                                   : AC-3\r\nFormat/Info                              : Audio Coding 3\r\nMode extension                           : CM (complete main)\r\nFormat settings, Endianness              : Big\r\nCodec ID                                 : A_AC3\r\nDuration                                 : 1 h 33 min\r\nBit rate mode                            : Constant\r\nBit rate                                 : 384 kb/s\r\nChannel(s)                               : 6 channels\r\nChannel positions                        : Front: L C R, Side: L R, LFE\r\nSampling rate                            : 48.0 kHz\r\nFrame rate                               : 31.250 FPS (1536 spf)\r\nBit depth                                : 16 bits\r\nCompression mode                         : Lossy\r\nDelay relative to video                  : -21 ms\r\nStream size                              : 256 MiB (30%)\r\nTitle                                    : &#x263B;rDX&#x263B;\r\nDefault                                  : Yes\r\nForced                                   : No","last_updated":"2018-05-28T12:11:25.592Z","parsed":{"xt":"urn:btih:d40411be27547849d2e66d6ee88306e0fb323094","dn":"Fatal Crossing 2018 Movies 720p HDRip x264 5.1 with Sample ☻rDX☻","tr":["udp://exodus.desync.com:6969","udp://open.demonii.com:1337","udp://tracker.coppersurfer.tk:6969","udp://tracker.leechers-paradise.org:6969","udp://zer0day.ch:1337"],"infoHash":"d40411be27547849d2e66d6ee88306e0fb323094","infoHashBuffer":{"type":"Buffer","data":[212,4,17,190,39,84,120,73,210,230,109,110,232,131,6,224,251,50,48,148]},"name":"Fatal Crossing 2018 Movies 720p HDRip x264 5.1 with Sample ☻rDX☻","announce":["udp://exodus.desync.com:6969","udp://open.demonii.com:1337","udp://tracker.coppersurfer.tk:6969","udp://tracker.leechers-paradise.org:6969","udp://zer0day.ch:1337"],"urlList":[]}}